<svg width="16" height="16" viewBox="0 0 16 16" fill="none" xmlns="http://www.w3.org/2000/svg">
<path fill-rule="evenodd" clip-rule="evenodd" d="M14.8501 3.89006C15.6067 3.13342 15.6067 1.90666 14.8501 1.15002C14.0935 0.393383 12.8667 0.393383 12.1101 1.15002L7.99995 5.26012L3.8899 1.15007C3.13326 0.393427 1.9065 0.393428 1.14986 1.15007C0.393218 1.90671 0.393218 3.13347 1.14986 3.89011L5.25992 8.00016L1.1499 12.1102C0.393261 12.8668 0.39326 14.0936 1.1499 14.8502C1.90654 15.6069 3.1333 15.6069 3.88994 14.8502L7.99996 10.7402L12.11 14.8503C12.8667 15.6069 14.0934 15.6069 14.8501 14.8503C15.6067 14.0936 15.6067 12.8669 14.8501 12.1102L10.74 8.00016L14.8501 3.89006Z" fill="#5EB147"/>
</svg>
